<svg width="128" height="128" viewBox="0 0 128 128" xmlns="http://www.w3.org/2000/svg" fill="none">
  <defs>
    <radialGradient id="g1" cx="0" cy="0" r="1" gradientUnits="userSpaceOnUse" gradientTransform="translate(64 64) rotate(90) scale(64)">
      <stop offset="0" stop-color="#95f7ff"/>
      <stop offset="0.65" stop-color="#2fb7be"/>
      <stop offset="1" stop-color="#0b5a63"/>
    </radialGradient>
    <linearGradient id="g2" x1="16" y1="16" x2="112" y2="112" gradientUnits="userSpaceOnUse">
      <stop stop-color="#a8fbff" stop-opacity="0.95"/>
      <stop offset="1" stop-color="#52b6c4" stop-opacity="0.75"/>
    </linearGradient>
  </defs>

  <circle cx="64" cy="64" r="58" fill="#0a2228"/>

  <g transform="translate(64 64)">
    <path d="M0 -53 C13 -51 25 -45 34 -35 C25 -22 15 -11 0 0 Z" fill="url(#g1)"/>
    <path d="M0 -53 C-13 -51 -25 -45 -34 -35 C-25 -22 -15 -11 0 0 Z" fill="url(#g2)" fill-opacity="0.9"/>

    <g transform="rotate(30)"><path d="M0 -53 C13 -51 25 -45 34 -35 C25 -22 15 -11 0 0 Z" fill="url(#g1)"/></g>
    <g transform="rotate(60)"><path d="M0 -53 C13 -51 25 -45 34 -35 C25 -22 15 -11 0 0 Z" fill="url(#g2)"/></g>
    <g transform="rotate(90)"><path d="M0 -53 C13 -51 25 -45 34 -35 C25 -22 15 -11 0 0 Z" fill="url(#g1)"/></g>
    <g transform="rotate(120)"><path d="M0 -53 C13 -51 25 -45 34 -35 C25 -22 15 -11 0 0 Z" fill="url(#g2)"/></g>
    <g transform="rotate(150)"><path d="M0 -53 C13 -51 25 -45 34 -35 C25 -22 15 -11 0 0 Z" fill="url(#g1)"/></g>
    <g transform="rotate(180)"><path d="M0 -53 C13 -51 25 -45 34 -35 C25 -22 15 -11 0 0 Z" fill="url(#g2)"/></g>
    <g transform="rotate(210)"><path d="M0 -53 C13 -51 25 -45 34 -35 C25 -22 15 -11 0 0 Z" fill="url(#g1)"/></g>
    <g transform="rotate(240)"><path d="M0 -53 C13 -51 25 -45 34 -35 C25 -22 15 -11 0 0 Z" fill="url(#g2)"/></g>
    <g transform="rotate(270)"><path d="M0 -53 C13 -51 25 -45 34 -35 C25 -22 15 -11 0 0 Z" fill="url(#g1)"/></g>
    <g transform="rotate(300)"><path d="M0 -53 C13 -51 25 -45 34 -35 C25 -22 15 -11 0 0 Z" fill="url(#g2)"/></g>
    <g transform="rotate(330)"><path d="M0 -53 C13 -51 25 -45 34 -35 C25 -22 15 -11 0 0 Z" fill="url(#g1)"/></g>
  </g>

  <circle cx="64" cy="64" r="24" fill="#02070b"/>
  <circle cx="64" cy="64" r="58" stroke="#76d4df" stroke-opacity="0.3" stroke-width="2"/>
</svg>
