<svg width="1280" height="640" viewBox="0 0 1280 640" fill="none" xmlns="http://www.w3.org/2000/svg" role="img" aria-label="再生资源智慧看板封面">
  <defs>
    <radialGradient id="glow" cx="50%" cy="42%" r="60%">
      <stop offset="0%" stop-color="#1fe8ff" stop-opacity="0.32"/>
      <stop offset="45%" stop-color="#0d7f8f" stop-opacity="0.12"/>
      <stop offset="100%" stop-color="#06111f" stop-opacity="0"/>
    </radialGradient>
    <linearGradient id="panel" x1="0" y1="0" x2="1" y2="1">
      <stop offset="0%" stop-color="#0f2237"/>
      <stop offset="58%" stop-color="#081522"/>
      <stop offset="100%" stop-color="#031018"/>
    </linearGradient>
    <linearGradient id="accent" x1="0" y1="0" x2="1" y2="1">
      <stop offset="0%" stop-color="#7ef7d4"/>
      <stop offset="48%" stop-color="#3ac9ff"/>
      <stop offset="100%" stop-color="#1bff9d"/>
    </linearGradient>
    <filter id="softShadow" x="-20%" y="-20%" width="140%" height="140%">
      <feDropShadow dx="0" dy="28" stdDeviation="34" flood-color="#00131d" flood-opacity="0.58"/>
    </filter>
    <pattern id="grid" width="42" height="42" patternUnits="userSpaceOnUse">
      <path d="M42 0H0V42" stroke="#5bdcff" stroke-opacity="0.08"/>
    </pattern>
  </defs>

  <rect width="1280" height="640" rx="36" fill="#04101b"/>
  <rect width="1280" height="640" rx="36" fill="url(#grid)"/>
  <rect width="1280" height="640" rx="36" fill="url(#glow)"/>

  <g filter="url(#softShadow)">
    <rect x="64" y="58" width="1152" height="524" rx="34" fill="url(#panel)" stroke="#28516c"/>
    <rect x="88" y="82" width="1104" height="476" rx="26" stroke="#6deaff" stroke-opacity="0.12"/>
  </g>

  <g transform="translate(102 116)">
    <rect x="0" y="0" width="92" height="92" rx="28" fill="#071521" stroke="#51d9ff" stroke-opacity="0.42"/>
    <circle cx="46" cy="46" r="26" fill="#05111c" stroke="url(#accent)" stroke-width="6"/>
    <path d="M23 45C33 18 66 18 70 45C60 35 46 32 23 45Z" fill="#64f5c7" opacity="0.92"/>
    <path d="M22 49C48 40 65 46 72 68C52 62 37 57 22 49Z" fill="#37c8ff" opacity="0.9"/>
    <path d="M50 20C75 30 76 58 55 72C62 52 60 37 50 20Z" fill="#40e29c" opacity="0.82"/>
    <circle cx="46" cy="46" r="10" fill="#e8ffff"/>
  </g>

  <g transform="translate(226 118)">
    <text x="0" y="30" fill="#dff5ff" font-family="Microsoft YaHei, PingFang SC, Segoe UI, Arial, sans-serif" font-size="34" font-weight="800">再生资源智慧看板</text>
    <text x="0" y="70" fill="#73ddff" font-family="Segoe UI, Arial, sans-serif" font-size="22" font-weight="700" letter-spacing="1.2">Smart Recycling Intelligence Dashboard</text>
    <text x="0" y="112" fill="#a9bdd2" font-family="Microsoft YaHei, PingFang SC, Segoe UI, Arial, sans-serif" font-size="18">面向再生资源全品类的行情、资讯、法规、工艺与趋势知识中枢</text>
  </g>

  <g transform="translate(102 280)">
    <rect x="0" y="0" width="250" height="104" rx="22" fill="#071827" stroke="#244b67"/>
    <text x="24" y="38" fill="#80f8ce" font-family="Segoe UI, Arial, sans-serif" font-size="30" font-weight="800">18</text>
    <text x="74" y="35" fill="#d7ebf8" font-family="Microsoft YaHei, PingFang SC, Segoe UI, Arial, sans-serif" font-size="18" font-weight="700">资源大类</text>
    <text x="24" y="70" fill="#7f9bb8" font-family="Microsoft YaHei, PingFang SC, Segoe UI, Arial, sans-serif" font-size="15">金属、塑料、纸、危废、医废等</text>
  </g>

  <g transform="translate(384 280)">
    <rect x="0" y="0" width="250" height="104" rx="22" fill="#071827" stroke="#244b67"/>
    <text x="24" y="38" fill="#80f8ce" font-family="Segoe UI, Arial, sans-serif" font-size="30" font-weight="800">60+</text>
    <text x="98" y="35" fill="#d7ebf8" font-family="Microsoft YaHei, PingFang SC, Segoe UI, Arial, sans-serif" font-size="18" font-weight="700">报价条目</text>
    <text x="24" y="70" fill="#7f9bb8" font-family="Microsoft YaHei, PingFang SC, Segoe UI, Arial, sans-serif" font-size="15">实时采集 + 快照兜底</text>
  </g>

  <g transform="translate(666 280)">
    <rect x="0" y="0" width="250" height="104" rx="22" fill="#071827" stroke="#244b67"/>
    <text x="24" y="38" fill="#80f8ce" font-family="Segoe UI, Arial, sans-serif" font-size="30" font-weight="800">45s</text>
    <text x="104" y="35" fill="#d7ebf8" font-family="Microsoft YaHei, PingFang SC, Segoe UI, Arial, sans-serif" font-size="18" font-weight="700">轮询更新</text>
    <text x="24" y="70" fill="#7f9bb8" font-family="Microsoft YaHei, PingFang SC, Segoe UI, Arial, sans-serif" font-size="15">后端自动刷新行情与资讯</text>
  </g>

  <g transform="translate(948 280)">
    <rect x="0" y="0" width="220" height="104" rx="22" fill="#071827" stroke="#244b67"/>
    <text x="24" y="38" fill="#80f8ce" font-family="Segoe UI, Arial, sans-serif" font-size="30" font-weight="800">AI</text>
    <text x="76" y="35" fill="#d7ebf8" font-family="Microsoft YaHei, PingFang SC, Segoe UI, Arial, sans-serif" font-size="18" font-weight="700">知识策划</text>
    <text x="24" y="70" fill="#7f9bb8" font-family="Microsoft YaHei, PingFang SC, Segoe UI, Arial, sans-serif" font-size="15">观星策划 · 摘星制作</text>
  </g>

  <g transform="translate(102 444)">
    <path d="M0 0H1076" stroke="#2f6a86" stroke-opacity="0.65"/>
    <text x="0" y="46" fill="#d7ebf8" font-family="Microsoft YaHei, PingFang SC, Segoe UI, Arial, sans-serif" font-size="20" font-weight="700">行情监测</text>
    <text x="142" y="46" fill="#d7ebf8" font-family="Microsoft YaHei, PingFang SC, Segoe UI, Arial, sans-serif" font-size="20" font-weight="700">行业新闻</text>
    <text x="284" y="46" fill="#d7ebf8" font-family="Microsoft YaHei, PingFang SC, Segoe UI, Arial, sans-serif" font-size="20" font-weight="700">法规标准</text>
    <text x="426" y="46" fill="#d7ebf8" font-family="Microsoft YaHei, PingFang SC, Segoe UI, Arial, sans-serif" font-size="20" font-weight="700">工艺流程</text>
    <text x="568" y="46" fill="#d7ebf8" font-family="Microsoft YaHei, PingFang SC, Segoe UI, Arial, sans-serif" font-size="20" font-weight="700">地图热力</text>
    <text x="710" y="46" fill="#d7ebf8" font-family="Microsoft YaHei, PingFang SC, Segoe UI, Arial, sans-serif" font-size="20" font-weight="700">趋势分析</text>
  </g>
</svg>
