<svg width="1280" height="720" viewBox="0 0 1280 720" fill="none" xmlns="http://www.w3.org/2000/svg" role="img" aria-label="再生资源智慧看板 / Smart Recycling Intelligence Dashboard">
  <defs>
    <radialGradient id="bgGlow" cx="50%" cy="42%" r="70%">
      <stop offset="0%" stop-color="#1fe8ff" stop-opacity="0.26"/>
      <stop offset="46%" stop-color="#0e7d88" stop-opacity="0.12"/>
      <stop offset="100%" stop-color="#02070c" stop-opacity="0"/>
    </radialGradient>
    <linearGradient id="page" x1="0" y1="0" x2="1" y2="1">
      <stop offset="0%" stop-color="#10243a"/>
      <stop offset="42%" stop-color="#081522"/>
      <stop offset="100%" stop-color="#031015"/>
    </linearGradient>
    <linearGradient id="accent" x1="0" y1="0" x2="1" y2="1">
      <stop offset="0%" stop-color="#7bffe2"/>
      <stop offset="48%" stop-color="#49c7ff"/>
      <stop offset="100%" stop-color="#39ff9b"/>
    </linearGradient>
    <linearGradient id="gold" x1="0" y1="0" x2="1" y2="1">
      <stop offset="0%" stop-color="#f6d88a"/>
      <stop offset="100%" stop-color="#70ffd7"/>
    </linearGradient>
    <filter id="shadow" x="-20%" y="-20%" width="140%" height="140%">
      <feDropShadow dx="0" dy="32" stdDeviation="42" flood-color="#000712" flood-opacity="0.72"/>
    </filter>
    <filter id="glow" x="-40%" y="-40%" width="180%" height="180%">
      <feGaussianBlur stdDeviation="10" result="blur"/>
      <feColorMatrix in="blur" type="matrix" values="0 0 0 0 0.2 0 0 0 0 0.95 0 0 0 0 1 0 0 0 0.8 0"/>
      <feBlend in="SourceGraphic"/>
    </filter>
    <pattern id="grid" width="44" height="44" patternUnits="userSpaceOnUse">
      <path d="M44 0H0V44" stroke="#6bdcff" stroke-opacity="0.08"/>
      <circle cx="0" cy="0" r="1.2" fill="#80eaff" fill-opacity="0.18"/>
    </pattern>
    <clipPath id="coverClip">
      <rect x="46" y="42" width="1188" height="636" rx="34"/>
    </clipPath>
  </defs>

  <rect width="1280" height="720" fill="#02070c"/>
  <rect x="46" y="42" width="1188" height="636" rx="34" fill="url(#page)" filter="url(#shadow)"/>
  <g clip-path="url(#coverClip)">
    <rect x="46" y="42" width="1188" height="636" fill="url(#bgGlow)"/>
    <rect x="46" y="42" width="1188" height="636" fill="url(#grid)" opacity="0.7"/>
    <circle cx="972" cy="310" r="270" stroke="#55d6ff" stroke-opacity="0.12" stroke-width="1"/>
    <circle cx="972" cy="310" r="205" stroke="#55ffd0" stroke-opacity="0.16" stroke-width="1"/>
    <circle cx="972" cy="310" r="124" stroke="#7ee9ff" stroke-opacity="0.24" stroke-width="1"/>
    <path d="M840 180C906 118 1017 122 1088 186C1162 253 1173 366 1108 439C1043 512 929 522 856 458C779 391 770 246 840 180Z" fill="#0d2030" fill-opacity="0.74" stroke="#6de8ff" stroke-opacity="0.24"/>
    <path d="M890 256C928 225 1000 217 1048 256C1092 292 1098 367 1055 406C1010 447 938 440 897 404C856 368 849 289 890 256Z" fill="#07111d" stroke="#84ffd8" stroke-opacity="0.22"/>

    <g filter="url(#glow)">
      <path d="M905 338C936 292 1009 282 1056 316" stroke="url(#accent)" stroke-width="16" stroke-linecap="round"/>
      <path d="M1058 318C1032 377 963 410 905 382" stroke="url(#accent)" stroke-width="16" stroke-linecap="round"/>
      <path d="M904 382C878 341 875 292 904 254" stroke="url(#accent)" stroke-width="16" stroke-linecap="round"/>
    </g>
    <circle cx="982" cy="335" r="58" fill="#02080f" stroke="#a6fff0" stroke-opacity="0.35" stroke-width="3"/>
    <path d="M982 292L992 325L1026 335L992 345L982 378L972 345L938 335L972 325L982 292Z" fill="#cffff8"/>

    <g opacity="0.92">
      <circle cx="798" cy="455" r="5" fill="#72fbd1"/>
      <circle cx="830" cy="430" r="3" fill="#4ac7ff"/>
      <circle cx="862" cy="472" r="4" fill="#4ac7ff"/>
      <circle cx="1098" cy="214" r="4" fill="#72fbd1"/>
      <circle cx="1124" cy="270" r="3" fill="#4ac7ff"/>
      <path d="M798 455C825 421 858 414 890 391" stroke="#58e7ff" stroke-opacity="0.34"/>
      <path d="M982 335C1033 287 1076 250 1124 270" stroke="#58e7ff" stroke-opacity="0.28"/>
    </g>
  </g>

  <rect x="46" y="42" width="1188" height="636" rx="34" stroke="#79d9ff" stroke-opacity="0.24"/>
  <rect x="82" y="78" width="1120" height="566" rx="26" stroke="#79d9ff" stroke-opacity="0.12"/>

  <text x="84" y="106" fill="#8befff" font-size="15" font-family="Outfit, Inter, Arial, sans-serif" letter-spacing="6">INDUSTRY INTELLIGENCE REVIEW</text>
  <text x="1050" y="106" fill="#b8d3ef" font-size="14" font-family="Outfit, Inter, Arial, sans-serif" text-anchor="end">LIVE KNOWLEDGE SYSTEM</text>
  <line x1="84" y1="130" x2="1198" y2="130" stroke="#81dfff" stroke-opacity="0.18"/>

  <text x="84" y="205" fill="#f0f8ff" font-size="72" font-weight="800" font-family="Noto Sans SC, Microsoft YaHei, Arial, sans-serif">再生资源智慧看板</text>
  <text x="88" y="252" fill="#8eefff" font-size="28" font-weight="700" font-family="Outfit, Inter, Arial, sans-serif" letter-spacing="1.5">SMART RECYCLING INTELLIGENCE DASHBOARD</text>
  <text x="90" y="292" fill="#b8cdea" font-size="19" font-family="Noto Sans SC, Microsoft YaHei, Arial, sans-serif">行情 · 资讯 · 法规 · 工艺 · 区域热力 · 趋势判断</text>
  <text x="90" y="322" fill="#7f9bb9" font-size="16" font-family="Outfit, Inter, Arial, sans-serif">Market prices, news signals, regulatory context, process intelligence, and regional heatmaps.</text>

  <g transform="translate(88 372)">
    <rect width="222" height="102" rx="20" fill="#081827" stroke="#73d9ff" stroke-opacity="0.22"/>
    <text x="20" y="34" fill="#79ffe0" font-size="32" font-weight="800" font-family="Outfit, Inter, Arial, sans-serif">18</text>
    <text x="20" y="62" fill="#d9efff" font-size="16" font-weight="700" font-family="Noto Sans SC, Microsoft YaHei, Arial, sans-serif">资源大类</text>
    <text x="20" y="84" fill="#829fbd" font-size="13" font-family="Outfit, Inter, Arial, sans-serif">Resource Sectors</text>
  </g>

  <g transform="translate(332 372)">
    <rect width="222" height="102" rx="20" fill="#081827" stroke="#73d9ff" stroke-opacity="0.22"/>
    <text x="20" y="34" fill="#79ffe0" font-size="32" font-weight="800" font-family="Outfit, Inter, Arial, sans-serif">60+</text>
    <text x="20" y="62" fill="#d9efff" font-size="16" font-weight="700" font-family="Noto Sans SC, Microsoft YaHei, Arial, sans-serif">有效报价</text>
    <text x="20" y="84" fill="#829fbd" font-size="13" font-family="Outfit, Inter, Arial, sans-serif">Structured Quotes</text>
  </g>

  <g transform="translate(88 494)">
    <rect width="222" height="102" rx="20" fill="#081827" stroke="#73d9ff" stroke-opacity="0.22"/>
    <text x="20" y="34" fill="#79ffe0" font-size="32" font-weight="800" font-family="Outfit, Inter, Arial, sans-serif">45s</text>
    <text x="20" y="62" fill="#d9efff" font-size="16" font-weight="700" font-family="Noto Sans SC, Microsoft YaHei, Arial, sans-serif">前端轮询</text>
    <text x="20" y="84" fill="#829fbd" font-size="13" font-family="Outfit, Inter, Arial, sans-serif">Refresh Cadence</text>
  </g>

  <g transform="translate(332 494)">
    <rect width="222" height="102" rx="20" fill="#081827" stroke="#73d9ff" stroke-opacity="0.22"/>
    <text x="20" y="34" fill="#79ffe0" font-size="32" font-weight="800" font-family="Outfit, Inter, Arial, sans-serif">AI</text>
    <text x="20" y="62" fill="#d9efff" font-size="16" font-weight="700" font-family="Noto Sans SC, Microsoft YaHei, Arial, sans-serif">观星策划</text>
    <text x="20" y="84" fill="#829fbd" font-size="13" font-family="Outfit, Inter, Arial, sans-serif">Knowledge Curation</text>
  </g>

  <g transform="translate(638 438)">
    <text x="0" y="0" fill="#e5f7ff" font-size="18" font-weight="800" font-family="Noto Sans SC, Microsoft YaHei, Arial, sans-serif">专家工作流 / Analyst Workflow</text>
    <g transform="translate(0 28)">
      <circle cx="12" cy="12" r="12" fill="#12314b" stroke="#63dfff" stroke-opacity="0.35"/>
      <text x="34" y="17" fill="#cfe9ff" font-size="15" font-family="Noto Sans SC, Microsoft YaHei, Arial, sans-serif">先看回收价与地区差异</text>
      <text x="300" y="17" fill="#7594b5" font-size="13" font-family="Outfit, Inter, Arial, sans-serif">Price first</text>
    </g>
    <g transform="translate(0 68)">
      <circle cx="12" cy="12" r="12" fill="#12314b" stroke="#63dfff" stroke-opacity="0.35"/>
      <text x="34" y="17" fill="#cfe9ff" font-size="15" font-family="Noto Sans SC, Microsoft YaHei, Arial, sans-serif">再读行业新闻与品类异动</text>
      <text x="300" y="17" fill="#7594b5" font-size="13" font-family="Outfit, Inter, Arial, sans-serif">Signal tracking</text>
    </g>
    <g transform="translate(0 108)">
      <circle cx="12" cy="12" r="12" fill="#12314b" stroke="#63dfff" stroke-opacity="0.35"/>
      <text x="34" y="17" fill="#cfe9ff" font-size="15" font-family="Noto Sans SC, Microsoft YaHei, Arial, sans-serif">核对法规标准与处理工艺</text>
      <text x="300" y="17" fill="#7594b5" font-size="13" font-family="Outfit, Inter, Arial, sans-serif">Policy and process</text>
    </g>
  </g>

  <text x="88" y="636" fill="#7e96af" font-size="13" font-family="Outfit, Inter, Arial, sans-serif">Public-source intelligence · Snapshot fallback · Category-specific regulations · Built for long-running market observation</text>
  <text x="1198" y="636" fill="url(#gold)" font-size="15" font-weight="800" font-family="Noto Sans SC, Microsoft YaHei, Arial, sans-serif" text-anchor="end">人工智能观星策划 · 摘星制作</text>
</svg>
